<svg xmlns="http://www.w3.org/2000/svg" viewBox="0 0 64 64" width="256" height="256" role="img" aria-label="javv">
  <defs>
    <linearGradient id="sky" x1="0" y1="0" x2="0" y2="1">
      <stop offset="0" stop-color="#F7B57E"></stop>
      <stop offset="1" stop-color="#EC7E54"></stop>
    </linearGradient>
    <linearGradient id="river" x1="0" y1="0" x2="0" y2="1">
      <stop offset="0" stop-color="#FCE7C1"></stop>
      <stop offset="1" stop-color="#F4A368"></stop>
    </linearGradient>
    <clipPath id="lens"><circle cx="27" cy="26" r="13"></circle></clipPath>
  </defs>


  <rect x="0" y="0" width="64" height="64" rx="16" fill="#16232F"></rect>


  <line x1="30" y1="29" x2="51" y2="50" stroke="#F4A368" stroke-width="6.6" stroke-linecap="round"></line>


  <g clip-path="url(#lens)">
    <rect x="13" y="12" width="28" height="14.4" fill="url(#sky)"></rect>
    <rect x="13" y="26.4" width="28" height="13.6" fill="#21384A"></rect>

    <circle cx="27" cy="21" r="4.4" fill="#FCE7C1"></circle>

    <path d="M13 26.4 Q20 23.8 27 25.6 Q34 27.2 41 24.8 L41 27.2 L13 27.2 Z" fill="#C76A55" opacity="0.55"></path>

    <path d="M26.5 27.2 C26 30 23.5 31.4 24 34 C24.4 37 24.2 38.8 25.2 40.6 L30.8 40.6 C31.6 38.6 28 37 27.5 34 C27 31 29 30 28.5 27.2 Z" fill="url(#river)"></path>
  </g>


  <circle cx="27" cy="26" r="13" fill="none" stroke="#F4A368" stroke-width="3.3"></circle>
</svg>
